<svg xmlns="http://www.w3.org/2000/svg" xmlns:xlink="http://www.w3.org/1999/xlink" width="500" zoomAndPan="magnify" viewBox="0 0 375 374.999991" height="500" preserveAspectRatio="xMidYMid meet" version="1.0"><defs><g/><clipPath id="436135a6fc"><path d="M 204 84.121094 L 256 84.121094 L 256 136 L 204 136 Z M 204 84.121094 " clip-rule="nonzero"/></clipPath></defs><path fill="#f5f0ee" d="M 307.324219 153.875 C 307.519531 154.976562 307.667969 156.085938 307.761719 157.207031 C 307.859375 158.324219 307.910156 159.449219 307.90625 160.582031 C 307.90625 161.714844 307.855469 162.851562 307.753906 163.996094 C 307.652344 165.136719 307.503906 166.285156 307.304688 167.4375 C 307.109375 168.585938 306.859375 169.738281 306.5625 170.894531 C 306.265625 172.050781 305.921875 173.207031 305.527344 174.367188 C 305.136719 175.527344 304.691406 176.683594 304.203125 177.839844 C 303.714844 179 303.175781 180.15625 302.589844 181.308594 C 302.007812 182.464844 301.375 183.617188 300.695312 184.765625 C 300.015625 185.914062 299.292969 187.058594 298.519531 188.199219 C 297.75 189.335938 296.933594 190.472656 296.074219 191.601562 C 295.214844 192.726562 294.308594 193.847656 293.359375 194.964844 C 292.410156 196.078125 291.417969 197.183594 290.382812 198.28125 C 289.347656 199.378906 288.273438 200.464844 287.152344 201.542969 C 286.035156 202.621094 284.878906 203.6875 283.679688 204.742188 C 282.480469 205.796875 281.242188 206.839844 279.964844 207.871094 C 278.6875 208.902344 277.375 209.917969 276.023438 210.921875 C 274.671875 211.925781 273.285156 212.914062 271.863281 213.886719 C 270.441406 214.863281 268.984375 215.820312 267.492188 216.761719 C 266.003906 217.703125 264.480469 218.628906 262.925781 219.535156 C 261.371094 220.445312 259.785156 221.332031 258.167969 222.203125 C 256.554688 223.074219 254.910156 223.929688 253.238281 224.761719 C 251.566406 225.59375 249.867188 226.40625 248.140625 227.199219 C 246.414062 227.992188 244.667969 228.761719 242.894531 229.511719 C 241.117188 230.261719 239.324219 230.988281 237.503906 231.695312 C 235.6875 232.398438 233.847656 233.082031 231.992188 233.742188 C 230.132812 234.402344 228.257812 235.039062 226.363281 235.648438 C 224.472656 236.261719 222.5625 236.851562 220.636719 237.414062 C 218.714844 237.976562 216.777344 238.515625 214.824219 239.027344 C 212.875 239.539062 210.914062 240.027344 208.941406 240.488281 C 206.96875 240.949219 204.988281 241.382812 203 241.792969 C 201.011719 242.199219 199.015625 242.582031 197.015625 242.9375 C 195.015625 243.292969 193.011719 243.621094 191.003906 243.921875 C 188.996094 244.21875 186.984375 244.492188 184.976562 244.738281 C 182.964844 244.984375 180.957031 245.199219 178.949219 245.390625 C 176.941406 245.578125 174.9375 245.738281 172.933594 245.871094 C 170.933594 246.003906 168.941406 246.109375 166.953125 246.1875 C 164.964844 246.261719 162.984375 246.308594 161.011719 246.328125 C 159.039062 246.347656 157.082031 246.339844 155.128906 246.300781 C 153.179688 246.265625 151.246094 246.199219 149.320312 246.105469 C 147.398438 246.011719 145.488281 245.886719 143.597656 245.738281 C 141.703125 245.585938 139.832031 245.40625 137.972656 245.199219 C 136.117188 244.992188 134.28125 244.757812 132.464844 244.496094 C 130.648438 244.234375 128.851562 243.945312 127.078125 243.625 C 125.308594 243.308594 123.558594 242.964844 121.835938 242.59375 C 120.113281 242.21875 118.414062 241.820312 116.746094 241.394531 C 115.074219 240.96875 113.433594 240.519531 111.816406 240.042969 C 110.203125 239.5625 108.621094 239.058594 107.066406 238.53125 C 105.515625 238.003906 103.992188 237.449219 102.503906 236.871094 C 101.015625 236.292969 99.5625 235.6875 98.140625 235.0625 C 96.722656 234.433594 95.335938 233.78125 93.988281 233.109375 C 92.636719 232.433594 91.328125 231.738281 90.050781 231.015625 C 88.777344 230.296875 87.542969 229.554688 86.347656 228.792969 C 85.148438 228.027344 83.992188 227.242188 82.878906 226.4375 C 81.761719 225.632812 80.6875 224.808594 79.65625 223.960938 C 78.625 223.117188 77.636719 222.253906 76.6875 221.371094 C 75.742188 220.488281 74.839844 219.585938 73.980469 218.667969 C 73.125 217.75 72.3125 216.8125 71.542969 215.859375 C 70.773438 214.910156 70.054688 213.941406 69.375 212.957031 C 68.699219 211.972656 68.070312 210.976562 67.488281 209.964844 C 66.90625 208.949219 66.375 207.925781 65.886719 206.886719 C 65.398438 205.847656 64.960938 204.796875 64.570312 203.734375 C 64.179688 202.671875 63.835938 201.597656 63.542969 200.515625 C 63.25 199.429688 63.003906 198.335938 62.808594 197.234375 C 62.613281 196.132812 62.46875 195.019531 62.371094 193.902344 C 62.273438 192.78125 62.226562 191.65625 62.226562 190.523438 C 62.226562 189.394531 62.277344 188.253906 62.378906 187.113281 C 62.480469 185.96875 62.628906 184.824219 62.828125 183.671875 C 63.027344 182.519531 63.273438 181.367188 63.570312 180.210938 C 63.867188 179.054688 64.210938 177.898438 64.605469 176.738281 C 65 175.582031 65.441406 174.421875 65.929688 173.265625 C 66.421875 172.109375 66.957031 170.953125 67.542969 169.796875 C 68.128906 168.640625 68.757812 167.492188 69.4375 166.34375 C 70.117188 165.195312 70.84375 164.050781 71.613281 162.910156 C 72.382812 161.769531 73.199219 160.636719 74.058594 159.507812 C 74.921875 158.378906 75.824219 157.257812 76.773438 156.144531 C 77.722656 155.03125 78.714844 153.925781 79.75 152.828125 C 80.785156 151.730469 81.863281 150.644531 82.980469 149.566406 C 84.097656 148.488281 85.257812 147.421875 86.457031 146.367188 C 87.652344 145.308594 88.890625 144.265625 90.167969 143.238281 C 91.445312 142.207031 92.757812 141.1875 94.109375 140.183594 C 95.460938 139.183594 96.847656 138.191406 98.269531 137.21875 C 99.691406 136.246094 101.148438 135.289062 102.640625 134.34375 C 104.132812 133.402344 105.652344 132.480469 107.207031 131.570312 C 108.761719 130.664062 110.347656 129.773438 111.964844 128.902344 C 113.582031 128.03125 115.222656 127.179688 116.898438 126.347656 C 118.570312 125.515625 120.269531 124.703125 121.992188 123.910156 C 123.71875 123.117188 125.46875 122.347656 127.242188 121.597656 C 129.015625 120.847656 130.8125 120.117188 132.628906 119.414062 C 134.445312 118.707031 136.285156 118.023438 138.140625 117.363281 C 140 116.707031 141.875 116.070312 143.769531 115.457031 C 145.664062 114.84375 147.570312 114.257812 149.496094 113.695312 C 151.421875 113.132812 153.355469 112.59375 155.308594 112.082031 C 157.257812 111.566406 159.21875 111.082031 161.191406 110.621094 C 163.164062 110.15625 165.144531 109.722656 167.132812 109.316406 C 169.121094 108.90625 171.117188 108.523438 173.117188 108.167969 C 175.117188 107.816406 177.121094 107.488281 179.128906 107.1875 C 181.140625 106.886719 183.148438 106.613281 185.160156 106.371094 C 187.167969 106.125 189.179688 105.90625 191.1875 105.71875 C 193.195312 105.527344 195.199219 105.367188 197.199219 105.234375 C 199.199219 105.101562 201.191406 104.996094 203.183594 104.921875 C 205.171875 104.84375 207.148438 104.796875 209.121094 104.777344 C 211.09375 104.757812 213.054688 104.765625 215.003906 104.804688 C 216.953125 104.84375 218.890625 104.90625 220.8125 105.003906 C 222.734375 105.097656 224.644531 105.21875 226.535156 105.371094 C 228.429688 105.519531 230.304688 105.699219 232.160156 105.90625 C 234.015625 106.113281 235.855469 106.347656 237.671875 106.609375 C 239.488281 106.875 241.28125 107.164062 243.054688 107.480469 C 244.824219 107.796875 246.574219 108.144531 248.296875 108.515625 C 250.019531 108.886719 251.71875 109.285156 253.390625 109.710938 C 255.058594 110.136719 256.703125 110.589844 258.316406 111.066406 C 259.929688 111.542969 261.511719 112.046875 263.066406 112.574219 C 264.621094 113.105469 266.140625 113.660156 267.628906 114.238281 C 269.117188 114.816406 270.570312 115.417969 271.992188 116.046875 C 273.414062 116.675781 274.796875 117.324219 276.148438 118 C 277.496094 118.671875 278.808594 119.371094 280.082031 120.089844 C 281.355469 120.808594 282.589844 121.550781 283.789062 122.316406 C 284.984375 123.078125 286.140625 123.863281 287.253906 124.667969 C 288.371094 125.472656 289.445312 126.300781 290.476562 127.144531 C 291.507812 127.988281 292.5 128.855469 293.445312 129.738281 C 294.390625 130.621094 295.292969 131.519531 296.152344 132.441406 C 297.011719 133.359375 297.824219 134.292969 298.589844 135.246094 C 299.359375 136.199219 300.082031 137.167969 300.757812 138.148438 C 301.433594 139.132812 302.0625 140.132812 302.644531 141.144531 C 303.226562 142.15625 303.761719 143.183594 304.246094 144.21875 C 304.734375 145.257812 305.171875 146.308594 305.5625 147.371094 C 305.957031 148.433594 306.296875 149.507812 306.589844 150.59375 C 306.882812 151.675781 307.128906 152.769531 307.324219 153.875 Z M 307.324219 153.875 " fill-opacity="1" fill-rule="nonzero"/><path fill="#dd4826" d="M 158.8125 237.976562 C 140.949219 237.976562 124.203125 235.492188 109.761719 230.570312 C 98.699219 226.804688 89.347656 221.613281 82.722656 215.554688 C 76.269531 209.65625 72.351562 203 71.066406 195.769531 C 69.785156 188.539062 71.179688 180.941406 75.210938 173.1875 C 79.351562 165.21875 86.339844 157.128906 95.429688 149.785156 C 115.171875 133.839844 143.28125 122 174.570312 116.457031 C 205.847656 110.910156 236.308594 112.367188 260.335938 120.546875 C 271.394531 124.3125 280.746094 129.503906 287.371094 135.566406 C 293.824219 141.464844 297.746094 148.117188 299.027344 155.351562 C 300.308594 162.582031 298.914062 170.175781 294.886719 177.933594 C 290.746094 185.902344 283.757812 193.992188 274.667969 201.332031 C 254.921875 217.28125 226.816406 229.117188 195.527344 234.664062 C 183.054688 236.875 170.691406 237.976562 158.8125 237.976562 Z M 211.332031 118.667969 C 199.777344 118.667969 187.738281 119.738281 175.550781 121.898438 C 145.167969 127.285156 117.960938 138.714844 98.921875 154.085938 C 90.417969 160.957031 83.925781 168.4375 80.128906 175.730469 C 76.671875 182.386719 75.460938 188.800781 76.523438 194.800781 C 77.582031 200.796875 80.925781 206.414062 86.460938 211.472656 C 92.53125 217.019531 101.195312 221.816406 111.546875 225.339844 C 134.707031 233.226562 164.195312 234.601562 194.566406 229.21875 C 224.945312 223.835938 252.164062 212.402344 271.191406 197.03125 C 279.695312 190.164062 286.191406 182.679688 289.988281 175.386719 C 293.441406 168.730469 294.652344 162.320312 293.59375 156.320312 C 292.53125 150.308594 289.191406 144.707031 283.65625 139.644531 C 277.585938 134.101562 268.921875 129.304688 258.566406 125.777344 C 244.699219 121.0625 228.570312 118.667969 211.332031 118.667969 Z M 211.332031 118.667969 " fill-opacity="1" fill-rule="nonzero"/><g clip-path="url(#436135a6fc)"><path fill="#ffd540" d="M 253.871094 110.710938 L 245.074219 114.082031 C 244.042969 114.476562 243.601562 115.679688 244.117188 116.648438 L 248.570312 124.960938 C 249.386719 126.496094 247.800781 128.203125 246.214844 127.496094 L 237.601562 123.65625 C 236.589844 123.214844 235.429688 123.75 235.105469 124.796875 L 232.378906 133.816406 C 231.875 135.484375 229.550781 135.574219 228.925781 133.949219 L 225.550781 125.152344 C 225.160156 124.121094 223.957031 123.675781 222.988281 124.191406 L 214.675781 128.648438 C 213.140625 129.464844 211.433594 127.878906 212.140625 126.292969 L 215.976562 117.679688 C 216.421875 116.667969 215.886719 115.507812 214.835938 115.183594 L 205.816406 112.457031 C 204.152344 111.953125 204.058594 109.628906 205.6875 109.003906 L 214.484375 105.628906 C 215.511719 105.234375 215.957031 104.035156 215.441406 103.0625 L 210.988281 94.753906 C 210.171875 93.21875 211.757812 91.511719 213.339844 92.21875 L 221.957031 96.054688 C 222.964844 96.5 224.128906 95.964844 224.453125 94.914062 L 227.179688 85.894531 C 227.683594 84.226562 230.007812 84.136719 230.632812 85.761719 L 234.003906 94.558594 C 234.398438 95.589844 235.601562 96.035156 236.570312 95.519531 L 244.882812 91.066406 C 246.417969 90.246094 248.125 91.832031 247.417969 93.417969 L 243.578125 102.035156 C 243.136719 103.042969 243.671875 104.207031 244.722656 104.527344 L 253.742188 107.253906 C 255.40625 107.761719 255.496094 110.09375 253.871094 110.710938 Z M 253.871094 110.710938 " fill-opacity="1" fill-rule="nonzero"/></g><path fill="#584ea1" d="M 134.957031 239.824219 L 125.6875 242.4375 C 124.605469 242.742188 124.03125 243.933594 124.476562 244.964844 L 128.230469 253.839844 C 128.929688 255.476562 127.152344 257.074219 125.597656 256.203125 L 117.183594 251.5 C 116.203125 250.953125 114.960938 251.386719 114.535156 252.429688 L 110.921875 261.355469 C 110.253906 263.003906 107.871094 262.882812 107.386719 261.164062 L 104.769531 251.890625 C 104.46875 250.8125 103.277344 250.234375 102.246094 250.679688 L 93.367188 254.4375 C 91.730469 255.132812 90.136719 253.355469 91.003906 251.800781 L 95.710938 243.386719 C 96.257812 242.410156 95.824219 241.167969 94.78125 240.742188 L 85.855469 237.125 C 84.207031 236.460938 84.328125 234.078125 86.046875 233.59375 L 95.316406 230.976562 C 96.398438 230.671875 96.972656 229.480469 96.53125 228.453125 L 92.773438 219.574219 C 92.074219 217.9375 93.851562 216.34375 95.410156 217.210938 L 103.820312 221.917969 C 104.800781 222.460938 106.042969 222.027344 106.46875 220.988281 L 110.082031 212.058594 C 110.75 210.414062 113.132812 210.535156 113.617188 212.25 L 116.234375 221.523438 C 116.535156 222.605469 117.730469 223.179688 118.757812 222.734375 L 127.636719 218.976562 C 129.273438 218.28125 130.867188 220.058594 130 221.613281 L 125.292969 230.027344 C 124.746094 231.007812 125.183594 232.25 126.222656 232.671875 L 135.152344 236.289062 C 136.808594 236.964844 136.675781 239.339844 134.957031 239.824219 Z M 134.957031 239.824219 " fill-opacity="1" fill-rule="nonzero"/><path fill="#ffd540" d="M 107.132812 239.175781 L 104.578125 233.5 L 103.304688 229.996094 L 105.839844 229.078125 L 107.113281 232.582031 L 108.78125 238.582031 Z M 111.183594 242.824219 C 110.890625 243.359375 110.4375 243.730469 109.800781 243.964844 C 109.164062 244.195312 108.566406 244.195312 108.011719 243.972656 C 107.445312 243.753906 107.0625 243.359375 106.859375 242.792969 C 106.660156 242.226562 106.699219 241.683594 106.992188 241.15625 C 107.285156 240.632812 107.738281 240.257812 108.375 240.027344 C 109.011719 239.792969 109.609375 239.792969 110.164062 240.003906 C 110.71875 240.21875 111.101562 240.609375 111.316406 241.175781 C 111.515625 241.742188 111.476562 242.296875 111.183594 242.824219 Z M 111.183594 242.824219 " fill-opacity="1" fill-rule="nonzero"/><path fill="#ffd540" d="M 112.941406 237.066406 L 110.386719 231.390625 L 109.113281 227.886719 L 111.648438 226.964844 L 112.921875 230.472656 L 114.585938 236.46875 Z M 117 240.710938 C 116.707031 241.246094 116.253906 241.632812 115.617188 241.851562 C 114.980469 242.085938 114.386719 242.085938 113.828125 241.863281 C 113.265625 241.640625 112.878906 241.246094 112.679688 240.683594 C 112.476562 240.117188 112.515625 239.570312 112.808594 239.046875 C 113.101562 238.519531 113.558594 238.148438 114.195312 237.914062 C 114.828125 237.683594 115.425781 237.683594 115.980469 237.894531 C 116.535156 238.105469 116.921875 238.5 117.132812 239.066406 C 117.324219 239.632812 117.285156 240.1875 117 240.710938 Z M 117 240.710938 " fill-opacity="1" fill-rule="nonzero"/><path fill="#584ea1" d="M 224.996094 115.941406 C 224.480469 116.253906 223.886719 116.34375 223.230469 116.222656 C 222.574219 116.101562 222.046875 115.800781 221.683594 115.324219 C 221.308594 114.851562 221.179688 114.316406 221.289062 113.71875 C 221.402344 113.132812 221.714844 112.679688 222.230469 112.375 C 222.746094 112.074219 223.339844 111.980469 223.996094 112.101562 C 224.652344 112.226562 225.179688 112.527344 225.550781 112.992188 C 225.925781 113.46875 226.058594 113.992188 225.945312 114.578125 C 225.835938 115.171875 225.523438 115.628906 224.996094 115.941406 Z M 223.359375 110.738281 L 224.046875 104.558594 L 224.734375 100.894531 L 227.378906 101.386719 L 226.695312 105.054688 L 225.085938 111.0625 Z M 223.359375 110.738281 " fill-opacity="1" fill-rule="nonzero"/><path fill="#584ea1" d="M 231.277344 112.164062 L 231.359375 111.710938 C 231.460938 111.152344 231.683594 110.667969 232.007812 110.265625 C 232.328125 109.863281 232.703125 109.558594 233.105469 109.347656 C 233.511719 109.132812 233.914062 108.941406 234.320312 108.769531 C 234.722656 108.597656 235.066406 108.40625 235.359375 108.195312 C 235.652344 107.984375 235.824219 107.742188 235.875 107.46875 C 235.945312 107.082031 235.792969 106.730469 235.398438 106.40625 C 235.015625 106.09375 234.511719 105.871094 233.894531 105.761719 C 233.238281 105.640625 232.652344 105.671875 232.15625 105.863281 C 231.664062 106.054688 231.378906 106.347656 231.300781 106.75 L 228.542969 106.234375 C 228.792969 104.902344 229.480469 103.863281 230.601562 103.125 C 231.722656 102.386719 233.015625 102.15625 234.46875 102.429688 C 235.894531 102.691406 237.003906 103.347656 237.804688 104.378906 C 238.601562 105.40625 238.882812 106.558594 238.640625 107.820312 C 238.53125 108.40625 238.308594 108.910156 237.976562 109.324219 C 237.640625 109.738281 237.257812 110.054688 236.84375 110.253906 C 236.429688 110.457031 236.015625 110.640625 235.613281 110.8125 C 235.207031 110.972656 234.855469 111.164062 234.550781 111.398438 C 234.246094 111.617188 234.066406 111.890625 234.003906 112.203125 L 233.925781 112.660156 Z M 233.359375 117.496094 C 232.84375 117.808594 232.25 117.902344 231.589844 117.78125 C 230.933594 117.660156 230.421875 117.355469 230.054688 116.878906 C 229.691406 116.40625 229.5625 115.871094 229.671875 115.285156 C 229.785156 114.699219 230.097656 114.246094 230.601562 113.941406 C 231.117188 113.636719 231.703125 113.546875 232.359375 113.667969 C 233.015625 113.789062 233.539062 114.09375 233.914062 114.558594 C 234.289062 115.03125 234.417969 115.558594 234.308594 116.144531 C 234.199219 116.730469 233.882812 117.183594 233.359375 117.496094 Z M 233.359375 117.496094 " fill-opacity="1" fill-rule="nonzero"/><g fill="#dd4826" fill-opacity="1"><g transform="translate(124.455334, 209.229134)"><g><path d="M 24.890625 -43.875 C 25.816406 -41.457031 26.050781 -39.222656 25.59375 -37.171875 C 25.144531 -35.128906 24.128906 -33.242188 22.546875 -31.515625 C 25.242188 -31.054688 27.351562 -30.125 28.875 -28.71875 C 30.40625 -27.3125 31.59375 -25.515625 32.4375 -23.328125 L 33.796875 -19.75 C 34.441406 -18.0625 34.410156 -16.398438 33.703125 -14.765625 C 32.992188 -13.128906 31.820312 -12 30.1875 -11.375 C 28.457031 -10.71875 26.78125 -10.789062 25.15625 -11.59375 C 23.53125 -12.394531 22.414062 -13.585938 21.8125 -15.171875 L 20.5 -18.609375 L 2.9375 -28.609375 L 9.828125 -10.59375 C 10.472656 -8.90625 10.441406 -7.242188 9.734375 -5.609375 C 9.023438 -3.972656 7.832031 -2.832031 6.15625 -2.1875 C 4.425781 -1.53125 2.734375 -1.566406 1.078125 -2.296875 C -0.566406 -3.023438 -1.710938 -4.234375 -2.359375 -5.921875 L -16.484375 -42.84375 C -17.140625 -44.5625 -17.097656 -46.242188 -16.359375 -47.890625 C -15.617188 -49.546875 -14.382812 -50.703125 -12.65625 -51.359375 L 1.015625 -56.59375 C 3.765625 -57.644531 6.59375 -57.582031 9.5 -56.40625 L 17.65625 -52.9375 C 19.125 -52.3125 20.378906 -51.472656 21.421875 -50.421875 C 22.460938 -49.378906 23.269531 -48.113281 23.84375 -46.625 Z M -1.953125 -41.421875 L 2.546875 -29.65625 L 14.53125 -34.234375 L 10.03125 -46 Z M -1.953125 -41.421875 "/></g></g></g><g fill="#dd4826" fill-opacity="1"><g transform="translate(161.156885, 195.15052)"><g><path d="M 3.875 -41.3125 L 5.421875 -34.578125 C 7.804688 -35.117188 10.179688 -35.660156 12.546875 -36.203125 C 14.910156 -36.753906 17.285156 -37.304688 19.671875 -37.859375 C 21.367188 -38.242188 22.992188 -37.960938 24.546875 -37.015625 C 26.109375 -36.078125 27.097656 -34.707031 27.515625 -32.90625 C 27.910156 -31.195312 27.617188 -29.554688 26.640625 -27.984375 C 25.660156 -26.421875 24.320312 -25.445312 22.625 -25.0625 L 8.375 -21.78125 C 8.625 -20.71875 8.863281 -19.671875 9.09375 -18.640625 C 9.332031 -17.617188 9.5625 -16.625 9.78125 -15.65625 L 25.28125 -19.21875 C 27.03125 -19.625 28.664062 -19.347656 30.1875 -18.390625 C 31.71875 -17.429688 32.691406 -16.050781 33.109375 -14.25 C 33.503906 -12.550781 33.207031 -10.945312 32.21875 -9.4375 C 31.238281 -7.925781 29.910156 -6.921875 28.234375 -6.421875 L 10.609375 -2.359375 C 8.660156 -1.910156 6.769531 -1.988281 4.9375 -2.59375 C 3.101562 -3.195312 1.507812 -4.21875 0.15625 -5.65625 C -1.195312 -7.09375 -2.101562 -8.785156 -2.5625 -10.734375 L -3.46875 -14.671875 C -3.851562 -16.378906 -4.078125 -17.992188 -4.140625 -19.515625 C -4.210938 -21.046875 -3.921875 -22.5 -3.265625 -23.875 C -2.617188 -25.257812 -1.441406 -26.484375 0.265625 -27.546875 C -2.566406 -27.867188 -4.601562 -28.867188 -5.84375 -30.546875 C -7.082031 -32.234375 -7.992188 -34.347656 -8.578125 -36.890625 L -9.375 -40.328125 C -9.832031 -42.316406 -9.757812 -44.238281 -9.15625 -46.09375 C -8.5625 -47.957031 -7.570312 -49.5625 -6.1875 -50.90625 C -4.8125 -52.25 -3.148438 -53.144531 -1.203125 -53.59375 L 16.421875 -57.65625 C 18.171875 -58.0625 19.804688 -57.785156 21.328125 -56.828125 C 22.859375 -55.867188 23.820312 -54.539062 24.21875 -52.84375 C 24.625 -51.082031 24.34375 -49.410156 23.375 -47.828125 C 22.40625 -46.253906 21.070312 -45.269531 19.375 -44.875 Z M 3.875 -41.3125 "/></g></g></g><g fill="#dd4826" fill-opacity="1"><g transform="translate(196.298593, 187.451767)"><g><path d="M 2.90625 -40.078125 C 4.78125 -40.328125 6.445312 -39.890625 7.90625 -38.765625 C 9.363281 -37.640625 10.210938 -36.140625 10.453125 -34.265625 C 10.703125 -32.378906 10.265625 -30.679688 9.140625 -29.171875 C 8.023438 -27.660156 6.53125 -26.78125 4.65625 -26.53125 C 2.757812 -26.289062 1.054688 -26.753906 -0.453125 -27.921875 C -1.960938 -29.085938 -2.84375 -30.613281 -3.09375 -32.5 C -3.332031 -34.375 -2.863281 -36.046875 -1.6875 -37.515625 C -0.519531 -38.984375 1.007812 -39.835938 2.90625 -40.078125 Z M 6.25 -14.265625 C 8.125 -14.515625 9.789062 -14.078125 11.25 -12.953125 C 12.707031 -11.835938 13.5625 -10.332031 13.8125 -8.4375 C 14.050781 -6.5625 13.609375 -4.867188 12.484375 -3.359375 C 11.367188 -1.859375 9.875 -0.984375 8 -0.734375 C 6.101562 -0.492188 4.398438 -0.953125 2.890625 -2.109375 C 1.378906 -3.273438 0.503906 -4.796875 0.265625 -6.671875 C 0.015625 -8.566406 0.472656 -10.242188 1.640625 -11.703125 C 2.816406 -13.171875 4.351562 -14.023438 6.25 -14.265625 Z M 6.25 -14.265625 "/></g></g></g><g fill="#dd4826" fill-opacity="1"><g transform="translate(212.33326, 184.657986)"><g><path d="M -1.140625 -45.890625 C -1.191406 -47.734375 -0.609375 -49.332031 0.609375 -50.6875 C 1.828125 -52.050781 3.382812 -52.757812 5.28125 -52.8125 C 7.1875 -52.851562 8.78125 -52.210938 10.0625 -50.890625 C 11.351562 -49.566406 12.019531 -47.957031 12.0625 -46.0625 L 12.875 -13.375 L 24.9375 -13.671875 L 24.125 -46.65625 C 24.070312 -48.40625 24.675781 -49.960938 25.9375 -51.328125 C 27.207031 -52.691406 28.742188 -53.394531 30.546875 -53.4375 C 32.398438 -53.476562 33.988281 -52.847656 35.3125 -51.546875 C 36.644531 -50.253906 37.335938 -48.734375 37.390625 -46.984375 L 38.375 -7.25 C 38.414062 -5.40625 37.800781 -3.828125 36.53125 -2.515625 C 35.269531 -1.210938 33.710938 -0.539062 31.859375 -0.5 C 30.054688 -0.457031 28.488281 -1.054688 27.15625 -2.296875 C 25.832031 -3.535156 25.148438 -5.078125 25.109375 -6.921875 L 25.046875 -9.171875 C 25.046875 -9.421875 24.992188 -9.546875 24.890625 -9.546875 C 24.785156 -9.546875 24.6875 -9.421875 24.59375 -9.171875 C 23.769531 -6.242188 22.363281 -4.03125 20.375 -2.53125 C 18.394531 -1.03125 15.953125 -0.242188 13.046875 -0.171875 C 10.597656 -0.109375 8.382812 -0.550781 6.40625 -1.5 C 4.4375 -2.457031 2.84375 -3.847656 1.625 -5.671875 C 0.40625 -7.492188 -0.234375 -9.65625 -0.296875 -12.15625 Z M -1.140625 -45.890625 "/></g></g></g><g fill="#dd4826" fill-opacity="1"><g transform="translate(157.183645, 225.365144)"><g><path d="M 2.109375 -14.78125 L 2.671875 -11.71875 C 3.253906 -11.820312 3.75 -11.910156 4.15625 -11.984375 C 4.570312 -12.054688 4.976562 -12.128906 5.375 -12.203125 C 5.78125 -12.273438 6.273438 -12.367188 6.859375 -12.484375 C 7.472656 -12.585938 8.046875 -12.453125 8.578125 -12.078125 C 9.117188 -11.710938 9.453125 -11.207031 9.578125 -10.5625 C 9.679688 -9.945312 9.546875 -9.359375 9.171875 -8.796875 C 8.804688 -8.242188 8.296875 -7.910156 7.640625 -7.796875 L 3.515625 -7.046875 C 3.648438 -6.273438 3.769531 -5.601562 3.875 -5.03125 C 3.976562 -4.457031 4.101562 -3.78125 4.25 -3 C 4.363281 -2.394531 4.296875 -1.878906 4.046875 -1.453125 C 3.804688 -1.035156 3.46875 -0.722656 3.03125 -0.515625 C 2.601562 -0.304688 2.140625 -0.222656 1.640625 -0.265625 C 1.140625 -0.304688 0.703125 -0.476562 0.328125 -0.78125 C -0.0351562 -1.09375 -0.273438 -1.550781 -0.390625 -2.15625 L -2.65625 -14.671875 C -2.789062 -15.390625 -2.734375 -16.078125 -2.484375 -16.734375 C -2.242188 -17.390625 -1.859375 -17.953125 -1.328125 -18.421875 C -0.796875 -18.890625 -0.175781 -19.1875 0.53125 -19.3125 L 6.453125 -20.390625 C 7.109375 -20.515625 7.703125 -20.382812 8.234375 -20 C 8.765625 -19.625 9.082031 -19.128906 9.1875 -18.515625 C 9.3125 -17.878906 9.179688 -17.28125 8.796875 -16.71875 C 8.421875 -16.164062 7.921875 -15.832031 7.296875 -15.71875 Z M 2.109375 -14.78125 "/></g></g></g><g fill="#dd4826" fill-opacity="1"><g transform="translate(170.009176, 223.036024)"><g><path d="M -2.6875 -14.640625 C -2.832031 -15.410156 -2.765625 -16.125 -2.484375 -16.78125 C -2.203125 -17.4375 -1.785156 -17.988281 -1.234375 -18.4375 C -0.691406 -18.882812 -0.0664062 -19.175781 0.640625 -19.3125 L 5.953125 -20.265625 C 6.660156 -20.398438 7.335938 -20.34375 7.984375 -20.09375 C 8.640625 -19.851562 9.203125 -19.46875 9.671875 -18.9375 C 10.148438 -18.414062 10.457031 -17.785156 10.59375 -17.046875 L 12.53125 -6.359375 C 12.644531 -5.722656 12.570312 -5.070312 12.3125 -4.40625 C 12.0625 -3.738281 11.6875 -3.15625 11.1875 -2.65625 C 10.6875 -2.164062 10.109375 -1.863281 9.453125 -1.75 L 3.90625 -0.734375 C 3.25 -0.617188 2.582031 -0.703125 1.90625 -0.984375 C 1.238281 -1.265625 0.65625 -1.671875 0.15625 -2.203125 C -0.332031 -2.734375 -0.632812 -3.316406 -0.75 -3.953125 Z M 6.078125 -15.46875 L 2.09375 -14.75 L 3.78125 -5.46875 L 7.765625 -6.1875 Z M 6.078125 -15.46875 "/></g></g></g><g fill="#dd4826" fill-opacity="1"><g transform="translate(184.321727, 220.436862)"><g><path d="M 11.734375 -13.875 C 11.898438 -12.957031 11.832031 -12.148438 11.53125 -11.453125 C 11.226562 -10.753906 10.742188 -10.148438 10.078125 -9.640625 C 11.003906 -9.304688 11.691406 -8.835938 12.140625 -8.234375 C 12.585938 -7.640625 12.882812 -6.925781 13.03125 -6.09375 L 13.28125 -4.75 C 13.394531 -4.113281 13.269531 -3.53125 12.90625 -3 C 12.550781 -2.46875 12.0625 -2.144531 11.4375 -2.03125 C 10.78125 -1.90625 10.1875 -2.035156 9.65625 -2.421875 C 9.132812 -2.816406 8.820312 -3.316406 8.71875 -3.921875 L 8.484375 -5.21875 L 2.9375 -9.90625 L 4.1875 -3.09375 C 4.300781 -2.457031 4.179688 -1.875 3.828125 -1.34375 C 3.472656 -0.8125 2.972656 -0.488281 2.328125 -0.375 C 1.671875 -0.25 1.070312 -0.375 0.53125 -0.75 C 0 -1.125 -0.320312 -1.628906 -0.4375 -2.265625 L -2.984375 -16.265625 C -3.097656 -16.910156 -2.96875 -17.5 -2.59375 -18.03125 C -2.226562 -18.570312 -1.71875 -18.90625 -1.0625 -19.03125 L 4.109375 -19.96875 C 5.160156 -20.15625 6.160156 -19.941406 7.109375 -19.328125 L 9.765625 -17.5625 C 10.234375 -17.25 10.617188 -16.867188 10.921875 -16.421875 C 11.234375 -15.972656 11.441406 -15.46875 11.546875 -14.90625 Z M 2.0625 -14.765625 L 2.875 -10.3125 L 7.40625 -11.140625 L 6.59375 -15.59375 Z M 2.0625 -14.765625 "/></g></g></g><g fill="#dd4826" fill-opacity="1"><g transform="translate(199.138802, 217.746077)"><g/></g></g><g fill="#dd4826" fill-opacity="1"><g transform="translate(206.016265, 216.497129)"><g><path d="M -1.1875 -19 L 7.4375 -20.578125 C 8.039062 -20.679688 8.550781 -20.609375 8.96875 -20.359375 C 9.394531 -20.117188 9.703125 -19.773438 9.890625 -19.328125 C 10.085938 -18.890625 10.171875 -18.425781 10.140625 -17.9375 C 10.117188 -17.457031 9.953125 -17.03125 9.640625 -16.65625 C 9.335938 -16.28125 8.882812 -16.039062 8.28125 -15.9375 L 6.296875 -15.578125 C 6.648438 -13.628906 7.003906 -11.664062 7.359375 -9.6875 C 7.722656 -7.707031 8.078125 -5.75 8.421875 -3.8125 C 8.535156 -3.195312 8.46875 -2.671875 8.21875 -2.234375 C 7.976562 -1.796875 7.640625 -1.46875 7.203125 -1.25 C 6.765625 -1.039062 6.300781 -0.957031 5.8125 -1 C 5.320312 -1.039062 4.882812 -1.222656 4.5 -1.546875 C 4.125 -1.867188 3.878906 -2.335938 3.765625 -2.953125 L 1.640625 -14.71875 C 1.171875 -14.632812 0.867188 -14.582031 0.734375 -14.5625 C 0.609375 -14.539062 0.5625 -14.53125 0.59375 -14.53125 C 0.632812 -14.539062 0.671875 -14.546875 0.703125 -14.546875 C 0.734375 -14.554688 0.679688 -14.546875 0.546875 -14.515625 C 0.410156 -14.492188 0.113281 -14.441406 -0.34375 -14.359375 C -0.945312 -14.253906 -1.457031 -14.320312 -1.875 -14.5625 C -2.300781 -14.800781 -2.617188 -15.140625 -2.828125 -15.578125 C -3.035156 -16.023438 -3.117188 -16.488281 -3.078125 -16.96875 C -3.035156 -17.457031 -2.859375 -17.890625 -2.546875 -18.265625 C -2.242188 -18.648438 -1.789062 -18.894531 -1.1875 -19 Z M -1.1875 -19 "/></g></g></g><g fill="#dd4826" fill-opacity="1"><g transform="translate(219.824293, 213.989588)"><g><path d="M -2.953125 -16.265625 C -3.066406 -16.910156 -2.945312 -17.503906 -2.59375 -18.046875 C -2.238281 -18.597656 -1.722656 -18.9375 -1.046875 -19.0625 C -0.378906 -19.1875 0.21875 -19.050781 0.75 -18.65625 C 1.28125 -18.257812 1.609375 -17.722656 1.734375 -17.046875 L 3.828125 -5.46875 L 8.109375 -6.25 L 5.984375 -17.9375 C 5.878906 -18.550781 6.007812 -19.132812 6.375 -19.6875 C 6.75 -20.238281 7.253906 -20.570312 7.890625 -20.6875 C 8.546875 -20.8125 9.148438 -20.679688 9.703125 -20.296875 C 10.253906 -19.910156 10.582031 -19.410156 10.6875 -18.796875 L 13.25 -4.71875 C 13.375 -4.0625 13.242188 -3.460938 12.859375 -2.921875 C 12.472656 -2.390625 11.953125 -2.0625 11.296875 -1.9375 C 10.660156 -1.820312 10.070312 -1.945312 9.53125 -2.3125 C 9 -2.6875 8.671875 -3.203125 8.546875 -3.859375 L 8.40625 -4.65625 C 8.382812 -4.75 8.351562 -4.789062 8.3125 -4.78125 C 8.28125 -4.78125 8.257812 -4.726562 8.25 -4.625 C 8.113281 -3.539062 7.734375 -2.675781 7.109375 -2.03125 C 6.492188 -1.394531 5.671875 -0.984375 4.640625 -0.796875 C 3.773438 -0.640625 2.960938 -0.671875 2.203125 -0.890625 C 1.441406 -1.117188 0.789062 -1.523438 0.25 -2.109375 C -0.28125 -2.691406 -0.625 -3.421875 -0.78125 -4.296875 Z M -2.953125 -16.265625 "/></g></g></g></svg>